<?xml version="1.0" standalone="no"?>
<!DOCTYPE svg PUBLIC "-//W3C//DTD SVG 20010904//EN"
 "http://www.w3.org/TR/2001/REC-SVG-20010904/DTD/svg10.dtd">
<svg version="1.0" xmlns="http://www.w3.org/2000/svg"
 width="500.000000pt" height="500.000000pt" viewBox="0 0 500.000000 500.000000"
 preserveAspectRatio="xMidYMid meet">

<g transform="translate(0.000000,500.000000) scale(0.100000,-0.100000)"
fill="#000000" stroke="none">
<path d="M2265 4518 c-75 -27 -125 -96 -125 -174 l0 -40 -129 -43 c-211 -70
-459 -204 -595 -323 l-39 -34 17 -32 17 -33 52 44 c154 131 369 246 592 318
106 34 126 35 149 10 21 -23 21 -21 -47 -208 l-40 -113 -51 0 c-58 0 -139 -34
-172 -71 -16 -19 -56 -82 -60 -96 0 -3 -419 63 -466 73 -16 3 -28 14 -32 28
-8 32 -52 73 -93 87 -48 16 -114 -10 -143 -55 -69 -112 54 -251 169 -191 16 8
37 25 47 39 l19 24 180 -29 c99 -16 210 -34 248 -40 37 -6 64 -15 61 -20 -3
-5 2 -34 10 -63 29 -97 134 -176 236 -176 90 0 183 61 221 144 26 58 25 154
-2 209 -12 23 -39 58 -60 78 -22 19 -39 39 -39 43 0 4 23 72 52 152 l51 144
36 0 c20 0 49 7 65 15 15 8 32 15 36 15 4 0 92 -74 195 -164 188 -164 188
-164 205 -143 10 12 19 26 21 30 2 5 -24 32 -57 60 -199 168 -314 272 -314
284 0 10 26 13 123 13 185 0 332 -24 540 -88 l87 -27 0 -61 c0 -64 28 -133 72
-181 24 -26 99 -63 128 -63 11 0 23 -6 25 -12 6 -16 35 -357 35 -406 l0 -36
-37 36 c-58 54 -180 144 -244 178 -51 27 -57 34 -63 69 -17 109 -144 154 -223
79 -22 -20 -25 -20 -100 -7 -92 16 -427 19 -442 4 -5 -5 -7 -22 -4 -36 l5 -26
171 1 c106 1 202 -4 248 -13 73 -13 77 -15 83 -42 18 -93 121 -137 198 -85
l35 23 39 -20 c68 -34 167 -103 229 -160 l60 -54 -18 -37 c-23 -49 -22 -91 5
-133 23 -38 70 -63 116 -63 39 0 94 38 112 77 l15 33 161 0 161 0 24 -35 c53
-78 170 -97 244 -40 59 45 77 81 73 150 -4 71 -29 111 -91 145 -102 58 -233 0
-256 -113 l-7 -32 -154 -3 -153 -3 -33 35 c-18 19 -41 37 -52 40 -24 8 -26 20
-47 291 -8 104 -11 191 -6 193 4 1 25 11 45 21 l36 19 168 -174 168 -174 21
29 21 28 -158 164 c-88 90 -159 169 -160 175 0 7 9 31 20 55 39 88 18 197 -51
268 -48 48 -103 71 -174 71 -73 0 -126 -23 -176 -74 l-36 -38 -109 35 c-170
55 -307 79 -491 84 l-161 6 -12 43 c-15 53 -72 108 -127 123 -45 13 -59 13
-98 -1z m89 -92 c46 -19 64 -71 41 -115 -30 -59 -89 -68 -136 -22 -47 47 -36
110 24 136 40 18 32 17 71 1z m1182 -222 c46 -22 71 -87 54 -139 -19 -58 -56
-85 -115 -85 -39 0 -56 5 -77 25 -37 34 -53 86 -38 129 25 76 100 106 176 70z
m-1406 -450 c89 -53 74 -189 -25 -222 -105 -34 -192 76 -141 177 28 54 112 76
166 45z m2100 -402 c52 -65 -3 -153 -86 -138 -42 8 -64 39 -64 88 0 78 102
112 150 50z"/>
<path d="M1057 3547 c-81 -114 -161 -267 -204 -386 -17 -49 -19 -51 -55 -51
-66 0 -124 -49 -135 -114 -7 -45 21 -102 63 -129 l34 -22 0 -327 0 -328 35 0
35 0 0 328 0 329 26 13 c31 17 60 56 69 93 4 15 10 27 14 27 3 0 56 14 116 30
61 16 156 41 211 56 l101 26 27 -27 27 -27 -24 -62 c-27 -67 -61 -188 -72
-253 -6 -39 -9 -42 -46 -48 -54 -9 -127 -61 -163 -114 -36 -55 -47 -155 -23
-214 55 -131 207 -194 331 -137 122 55 180 215 121 330 -22 43 -82 100 -123
117 -31 13 -32 16 -26 51 12 72 36 158 66 235 25 66 35 81 62 92 64 27 98 85
89 152 -5 40 -4 41 101 148 58 59 106 111 106 114 0 3 -9 17 -19 30 l-18 24
-83 -79 c-45 -43 -94 -96 -107 -117 -18 -29 -28 -37 -41 -31 -36 16 -100 16
-131 -1 -33 -17 -71 -68 -71 -96 0 -13 -22 -22 -82 -39 -46 -11 -141 -37 -211
-56 -143 -38 -157 -40 -157 -20 0 49 112 284 203 424 33 51 58 94 56 95 -2 2
-16 8 -31 15 -27 11 -29 9 -71 -51z m-203 -519 c31 -44 16 -97 -33 -117 -72
-30 -134 60 -81 117 29 31 93 31 114 0z m541 -494 c13 -9 31 -34 40 -58 32
-84 -22 -161 -115 -161 -40 0 -54 5 -79 29 -54 51 -50 143 7 185 34 25 112 28
147 5z"/>
<path d="M2803 3046 c-41 -19 -50 -53 -47 -180 3 -86 6 -102 25 -122 17 -18
33 -24 65 -24 51 0 84 33 84 86 0 31 -3 34 -29 34 -26 0 -30 -4 -33 -32 -2
-25 -8 -33 -23 -33 -19 0 -20 7 -20 110 0 103 1 110 20 110 14 0 21 -8 23 -27
3 -24 8 -28 33 -28 25 0 29 4 29 29 0 36 -35 78 -70 85 -14 3 -39 -1 -57 -8z"/>
<path d="M4203 3046 c-17 -8 -34 -23 -38 -34 -5 -17 -9 -150 -6 -229 2 -63
109 -89 150 -37 12 15 21 41 21 60 0 31 -3 34 -29 34 -26 0 -30 -4 -33 -32 -2
-25 -8 -33 -23 -33 -19 0 -20 7 -20 110 0 103 1 110 20 110 14 0 21 -8 23 -27
3 -24 8 -28 33 -28 25 0 29 4 29 29 0 36 -35 78 -70 85 -14 3 -39 -1 -57 -8z"/>
<path d="M1670 2885 l0 -166 78 3 c75 3 77 4 77 28 0 23 -4 25 -47 28 l-48 3
0 40 0 39 41 0 c38 0 40 1 37 28 -3 23 -8 27 -40 30 -37 3 -38 5 -38 40 0 37
0 38 38 35 46 -2 65 8 60 33 -3 16 -14 19 -81 22 l-77 3 0 -166z"/>
<path d="M2020 2884 l0 -166 64 4 c101 6 106 14 106 164 0 120 0 123 -26 143
-20 16 -41 21 -85 21 l-59 0 0 -166z m105 0 c0 -95 -1 -99 -22 -102 -23 -3
-23 -2 -23 107 0 110 0 110 23 102 21 -8 22 -14 22 -107z"/>
<path d="M2390 2907 c0 -137 1 -144 23 -165 30 -28 85 -29 121 -1 26 20 26 21
26 165 l0 144 -30 0 -29 0 -3 -137 c-3 -130 -4 -138 -23 -138 -19 0 -20 8 -23
138 l-3 137 -29 0 -30 0 0 -143z"/>
<path d="M3141 2893 c-17 -87 -31 -161 -31 -165 0 -5 13 -8 29 -8 23 0 30 5
33 23 4 31 58 38 58 7 0 -23 18 -33 48 -28 19 3 19 7 -9 143 -16 77 -31 150
-34 163 -4 16 -13 22 -34 22 l-28 0 -32 -157z m73 -20 c6 -49 5 -53 -14 -53
-16 0 -20 5 -17 18 3 9 8 34 12 56 8 47 11 44 19 -21z"/>
<path d="M3472 3023 c2 -20 9 -28 23 -28 19 0 20 -8 23 -138 l3 -137 29 0 30
0 0 138 c0 137 0 139 23 138 17 -1 23 5 25 27 l3 27 -81 0 -81 0 3 -27z"/>
<path d="M3810 2885 l0 -165 80 0 80 0 0 30 c0 29 -2 30 -45 30 l-45 0 0 40
c0 39 1 40 35 40 32 0 35 2 35 30 0 28 -3 30 -35 30 -34 0 -35 1 -35 38 0 37
0 37 42 37 39 0 43 2 46 28 l3 27 -80 0 -81 0 0 -165z"/>
<path d="M3538 2530 l-3 -70 -50 64 c-27 36 -56 65 -62 66 -10 0 -13 -23 -13
-85 0 -101 18 -115 22 -18 l3 67 53 -67 c30 -37 58 -67 63 -67 12 0 12 167 -1
175 -5 3 -10 -23 -12 -65z"/>
<path d="M3668 2585 c-54 -30 -57 -113 -6 -149 44 -31 101 -17 126 31 41 76
-44 160 -120 118z m87 -30 c46 -45 22 -115 -39 -115 -64 0 -95 82 -47 122 31
25 57 23 86 -7z"/>
<path d="M3873 2593 c-16 -6 -18 -173 -3 -173 6 0 10 16 10 35 0 47 29 47 61
0 13 -19 30 -35 38 -35 9 0 4 12 -14 36 -25 33 -26 37 -11 53 19 21 21 55 3
69 -15 13 -67 22 -84 15z m63 -27 c25 -19 8 -50 -30 -54 -23 -3 -26 0 -26 26
0 45 20 54 56 28z"/>
<path d="M4030 2588 c0 -4 14 -8 30 -8 l30 0 0 -80 c0 -47 4 -80 10 -80 6 0
10 33 10 80 l0 80 32 0 c55 0 25 9 -45 13 -37 2 -67 0 -67 -5z"/>
<path d="M4242 2589 c-22 -8 -23 -14 -21 -89 l2 -80 48 0 c26 0 51 5 54 10 4
6 -12 10 -39 10 -44 0 -46 1 -46 30 0 28 3 30 35 30 19 0 35 5 35 10 0 6 -16
10 -36 10 -33 0 -35 2 -32 28 3 23 9 28 43 33 22 3 33 7 25 8 -8 2 -22 4 -30
5 -8 2 -25 0 -38 -5z"/>
<path d="M1480 2109 c-13 -6 -26 -12 -28 -14 -2 -2 12 -46 32 -98 l35 -95 -34
-38 -34 -37 -190 48 c-182 45 -191 48 -191 72 0 33 -34 97 -66 122 -36 28 -99
44 -143 36 -108 -19 -178 -141 -140 -242 21 -56 93 -113 143 -113 21 0 32 -15
82 -109 31 -60 85 -148 119 -196 l63 -88 -24 -45 c-18 -34 -24 -61 -24 -109 0
-74 19 -125 63 -171 53 -56 102 -76 182 -76 75 0 118 15 167 61 l27 26 148
-86 148 -85 6 -45 c9 -59 22 -81 63 -106 90 -56 206 7 206 112 0 102 -105 168
-194 122 -15 -8 -32 -15 -37 -15 -7 0 -272 148 -297 166 -2 1 0 22 5 45 l9 44
89 12 c50 7 188 26 309 43 l218 30 20 -25 c26 -33 69 -55 110 -55 32 0 36 -5
114 -142 l82 -143 -34 -38 c-18 -22 -38 -61 -45 -88 -11 -43 -16 -49 -40 -49
-25 0 -179 25 -224 36 -16 4 -25 -3 -38 -30 -16 -35 -16 -36 6 -41 74 -17 171
-34 228 -40 64 -7 66 -8 78 -42 34 -92 146 -160 247 -150 96 10 179 73 213
161 l18 48 124 32 c142 36 319 103 319 121 0 6 -10 21 -23 33 l-23 22 -89 -36
c-64 -26 -283 -92 -311 -94 0 0 -6 18 -13 41 -15 49 -71 114 -124 140 -47 25
-120 34 -167 22 l-35 -9 -83 144 c-80 138 -83 144 -68 167 24 36 21 116 -5
149 -63 80 -192 71 -228 -16 -9 -22 -24 -40 -36 -43 -11 -3 -139 -21 -285 -40
-146 -20 -277 -38 -291 -41 -22 -4 -28 1 -44 36 -25 55 -87 107 -149 125 -66
20 -96 19 -158 -5 -29 -11 -55 -16 -58 -12 -3 5 -26 37 -51 73 -26 35 -72 108
-102 163 l-56 99 46 45 45 46 157 -39 c232 -57 221 -53 221 -78 1 -43 38 -105
80 -133 55 -37 138 -39 193 -5 80 49 108 151 66 237 -24 50 -69 82 -141 98
l-50 11 -33 89 c-17 50 -36 91 -41 92 -5 2 -20 -2 -34 -7z m-534 -123 c75 -64
-6 -177 -94 -132 -50 26 -58 91 -17 131 31 32 75 32 111 1z m737 -187 c41 -51
3 -139 -61 -139 -36 0 -78 32 -84 64 -7 34 17 84 44 96 33 14 80 4 101 -21z
m682 -414 c33 -32 32 -70 -1 -100 -33 -30 -53 -31 -88 -4 -18 14 -26 30 -26
52 0 37 7 49 35 65 31 18 54 14 80 -13z m373 -565 c19 -12 40 -37 49 -58 13
-32 14 -42 2 -77 -16 -44 -67 -85 -106 -85 -39 0 -93 30 -108 61 -58 111 58
223 163 159z"/>
<path d="M3525 1925 c-5 -2 -22 -6 -37 -9 -41 -9 -95 -61 -114 -111 -19 -51
-14 -110 14 -157 16 -28 16 -29 -13 -53 -67 -56 -158 -118 -231 -157 -74 -40
-77 -41 -90 -22 -31 44 -69 74 -100 80 -60 11 -121 -22 -153 -83 -26 -51 -1
-131 51 -163 26 -17 45 -20 87 -17 48 3 59 9 89 42 21 22 69 55 113 76 99 48
176 97 260 165 102 83 99 87 99 -135 0 -188 0 -189 -23 -195 -12 -3 -32 -14
-44 -26 -12 -11 -24 -20 -27 -20 -3 0 -65 34 -138 74 l-132 75 -18 -30 c-10
-16 -18 -31 -18 -34 0 -2 60 -38 134 -80 l135 -76 -6 -33 c-7 -43 11 -98 45
-138 75 -88 228 -75 287 25 37 65 35 140 -6 197 -18 25 -47 49 -70 59 l-39 16
0 186 0 187 23 6 c36 9 76 44 97 87 l20 39 180 0 c167 0 180 -1 190 -19 5 -11
17 -27 26 -36 15 -15 13 -21 -22 -78 -59 -98 -161 -224 -256 -319 l-88 -87 16
-36 15 -37 47 42 c121 108 264 281 345 416 29 49 43 63 68 68 17 3 46 21 65
40 30 30 34 40 34 89 0 61 -21 96 -70 122 -62 32 -143 6 -178 -55 l-17 -30
-175 0 -175 0 -20 42 c-31 63 -126 118 -180 103z m71 -119 c58 -49 20 -146
-57 -146 -41 0 -79 39 -79 83 0 75 80 112 136 63z"/>
</g>
</svg>
